<svg id="svg" version="1.1" xmlns="http://www.w3.org/2000/svg" xmlns:xlink="http://www.w3.org/1999/xlink" width="400" height="300" viewBox="0, 0, 400,300"><g id="svgg"><path id="path0" d="M176.500 15.871 C 165.498 20.896,163.016 27.416,162.961 51.432 C 162.939 60.819,161.439 94.037,159.628 125.250 L 156.335 181.999 153.294 185.784 C 144.922 196.202,142.216 206.097,141.068 230.500 C 140.131 250.417,138.414 257.375,133.247 262.193 C 127.945 267.139,127.064 267.280,92.500 268.739 C 51.932 270.452,49.318 271.162,47.349 281.004 L 46.750 284.000 157.375 284.000 C 278.870 284.000,269.861 284.478,266.595 278.200 C 263.808 272.845,260.664 271.013,249.641 268.327 L 238.995 265.733 247.420 249.616 C 252.054 240.752,257.050 231.174,258.523 228.331 C 262.435 220.777,259.885 211.255,249.285 193.837 L 245.230 187.174 249.410 184.172 C 266.019 172.244,263.528 159.782,229.613 85.142 C 217.092 57.585,217.592 60.342,225.019 59.805 C 236.604 58.967,247.943 41.180,237.500 40.226 C 231.485 39.676,229.687 38.818,224.641 34.091 C 217.515 27.416,216.397 27.000,205.566 27.000 L 196.000 27.000 196.000 30.545 C 196.000 36.758,199.370 39.000,208.705 38.998 C 215.254 38.995,217.638 39.495,223.621 42.121 L 230.742 45.248 229.219 49.124 L 227.697 53.000 209.803 53.000 C 192.138 53.000,191.878 53.031,189.455 55.455 C 181.462 63.447,199.293 85.980,217.350 90.707 L 224.201 92.500 231.141 111.000 C 241.769 139.331,242.420 142.321,242.463 163.000 L 242.500 180.500 231.721 214.500 C 218.979 254.690,217.622 257.000,206.766 257.000 C 202.049 257.000,201.766 258.207,210.058 242.963 C 223.387 218.457,224.987 210.958,219.430 199.020 C 218.027 196.006,217.289 193.404,217.791 193.236 C 227.694 189.935,233.070 177.632,231.095 162.791 C 228.377 142.361,221.722 130.187,200.051 106.000 C 181.802 85.633,176.114 75.387,174.089 59.239 C 172.784 48.830,173.607 45.765,177.944 44.878 C 182.642 43.917,183.186 42.554,182.606 33.205 C 181.822 20.578,180.944 21.000,207.969 21.000 C 231.741 21.000,233.009 20.641,225.533 16.020 C 220.810 13.101,182.817 12.985,176.500 15.871 M231.000 31.275 L 235.500 35.500 235.822 32.690 C 236.265 28.828,234.423 26.995,230.128 27.025 L 226.500 27.050 231.000 31.275 M193.755 136.750 C 195.363 138.813,200.126 145.514,204.339 151.641 L 212.000 162.783 212.000 174.619 L 212.000 186.456 208.750 182.558 C 190.522 160.696,179.696 139.686,183.992 134.510 C 186.328 131.695,190.574 132.669,193.755 136.750 " stroke="none" fill="#000000" fill-rule="evenodd"></path></g></svg>